PathFileType	4	(X/Y/Z)	./motion_analysis/DM_ngait_tm_med1_new.trc
DataRate	CameraRate	NumFrames	NumMarkers	Units	OrigDataRate	OrigDataStartFrame	OrigNumFrames
120	120	6	68	mm	120	1803	2061
Frame#	Time	Sternum			Neck			R_Shoulder			L_Shoulder			Xiphoid			Thoracic			R_Asis			L_Asis			R_Psis			L_Psis			Lumbar			R_Elbow			R_ElbowMedial			R_ShoulderAnterior			R_ShoulderPosterior			R_Wrist			R_Radius			R_Ulna			L_Elbow			L_ElbowMedial			L_ShoulderAnterior			L_ShoulderPosterior			L_Wrist			L_Ulna			L_Radius			L_Thigh_Superior			L_Thigh_Inferior			L_Thigh_Lateral			L_Knee_Lateral			L_Knee_Medial			L_Patella			L_Shank_Superior			L_Shank_Inferior			L_Shank_Lateral			L_Ankle_Lateral			L_Ankle_Medial			R_Thigh_Superior			R_Thigh_Inferior			R_Thigh_Lateral			R_Knee_Lateral			R_Knee_Medial			R_Patella			R_Shank_Superior			R_Shank_Inferior			R_Shank_Lateral			R_Ankle_Lateral			RankleMedial			R_Heel			R_Toe			R_Midfoot_Medial			R_Midfoot_Lateral			R_Hindfoot			R_Midfoot_Superior			R_ToeMedial			R_ToeLateral			L_Heel			L_Toe			L_Midfoot_Medial			L_Midfoot_Lateral			L_Hindfoot			L_Midfoot_Superior			L_ToeMedial			L_ToeLateral			Oglobal			Sacral			Xglobal			Yglobal			Zglobal			
		X1	Y1	Z1	X2	Y2	Z2	X3	Y3	Z3	X4	Y4	Z4	X5	Y5	Z5	X6	Y6	Z6	X7	Y7	Z7	X8	Y8	Z8	X9	Y9	Z9	X10	Y10	Z10	X11	Y11	Z11	X12	Y12	Z12	X13	Y13	Z13	X14	Y14	Z14	X15	Y15	Z15	X16	Y16	Z16	X17	Y17	Z17	X18	Y18	Z18	X19	Y19	Z19	X20	Y20	Z20	X21	Y21	Z21	X22	Y22	Z22	X23	Y23	Z23	X24	Y24	Z24	X25	Y25	Z25	X26	Y26	Z26	X27	Y27	Z27	X28	Y28	Z28	X29	Y29	Z29	X30	Y30	Z30	X31	Y31	Z31	X32	Y32	Z32	X33	Y33	Z33	X34	Y34	Z34	X35	Y35	Z35	X36	Y36	Z36	X37	Y37	Z37	X38	Y38	Z38	X39	Y39	Z39	X40	Y40	Z40	X41	Y41	Z41	X42	Y42	Z42	X43	Y43	Z43	X44	Y44	Z44	X45	Y45	Z45	X46	Y46	Z46	X47	Y47	Z47	X48	Y48	Z48	X49	Y49	Z49	X50	Y50	Z50	X51	Y51	Z51	X52	Y52	Z52	X53	Y53	Z53	X54	Y54	Z54	X55	Y55	Z55	X56	Y56	Z56	X57	Y57	Z57	X58	Y58	Z58	X59	Y59	Z59	X60	Y60	Z60	X61	Y61	Z61	X62	Y62	Z62	X63	Y63	Z63	X64	Y64	Z64	X65	Y65	Z65	X66	Y66	Z66	X67	Y67	Z67	X68	Y68	Z68	

1804	15.033333	-973.5890000000001	1369.09	429.28	-823.9930000000001	1463.99	405.821	-934.2809999999999	1407.98	255.195	-871.813	1419.19	592.277	-982.635	1203.69	433.183	-718.933	1278.5	418.009	-901.455	984.813	295.855	-900.842	979.548	572.91	-698.048	1026.86	404.062	-699.769	1026.03	482.361	-702.184	1076.03	441.587	-1019.45	1098.34	186.948	-0	0	0	-0	0	0	-0	0	0	-1224.66	948.491	290.155	-1196.91	947.47	328.053	-1202.12	918.5599999999999	259.904	-789.147	1088.57	686.224	-0	0	0	-0	0	0	-0	0	0	-842.385	824.691	676.933	-796.621	834.04	688.802	-845.6130000000001	841.438	632.782	-857.984	813.5170000000001	618.726	-956.597	610.481	581.968	-967.227	705.756	550.504	-0	0	0	-0	0	0	-1024.19	547.826	519.399	-971.155	467.174	592.442	-1054.61	207.579	603.6609999999999	-1056.72	342.372	532.879	-0	0	0	-0	0	0	-787.096	808.646	268.017	-754.157	594.732	313.084	-850.499	640.955	351.874	-0	0	0	-0	0	0	-805.828	490.436	389.177	-0	0	0	-600.973	213.338	321.206	-697.37	315.726	390.378	-0	0	0	-0	0	0	-480.824	91.4988	371.981	-777.393	63.8291	372.594	-699.085	42.9368	425.084	-688.607	39.7223	308.326	-577.717	46.7297	319.504	-647.151	134.15	368.781	-743.16	53.1803	417.513	-736.862	52.8455	323.477	-1043.23	67.7085	549.223	-1316.08	179.184	585.337	-1259.38	130.651	527.241	-1236.13	120.534	638.88	-1140.57	72.6241	617.403	-1169.03	184.788	573.717	-1294.53	148.293	537.9930000000001	-1284.3	146.138	634.375	-0	0	0	-698.908	1026.44	443.212	-200	0	0	-0	0	200	-0	200	0	
1805	15.041667	-974.105	1367.99	430.769	-824.472	1462.92	407.91	-934.4299999999999	1407.6	256.905	-872.802	1417.71	594.12	-983.33	1202.63	434.452	-719.532	1277.32	419.992	-901.95	983.706	296.805	-902.14	978.152	573.8339999999999	-698.862	1025.71	405.626	-700.812	1024.76	483.918	-703.127	1074.82	443.199	-1018.9	1097.88	187.396	-0	0	0	-0	0	0	-0	0	0	-1224.4	948.241	290.145	-1196.63	947.08	327.941	-1201.94	918.249	259.895	-790.643	1086.92	687.759	-0	0	0	-0	0	0	-0	0	0	-843.033	822.908	678.213	-797.383	832.457	690.384	-846.109	839.629	634.205	-860.477	813.298	620.878	-960.501	610.192	581.673	-970.105	705.807	549.598	-0	0	0	-0	0	0	-1027.31	547.504	519.029	-974.833	466.488	591.578	-1053.72	205.706	602.641	-1057.25	340.007	531.2380000000001	-0	0	0	-0	0	0	-786.79	807.827	268.961	-752.54	594.205	313.73	-849.251	639.8049999999999	352.531	-0	0	0	-0	0	0	-803.326	489.288	391.111	-0	0	0	-595.903	214.267	321.418	-693.545	315.526	390.577	-0	0	0	-0	0	0	-474.747	93.221	371.994	-770.867	63.4239	372.67	-692.587	42.8433	425.133	-682.061	39.5486	308.382	-571.125	47.4881	319.556	-641.37	134.405	368.706	-736.649	52.92	417.616	-730.282	52.6734	323.543	-1038.66	66.4348	549.099	-1314.16	172.327	581.283	-1255.91	124.419	524.389	-1233.53	115.995	636.347	-1136.83	70.0351	616.304	-1167.12	180.926	571.1180000000001	-1291.51	141.436	534.505	-1282.08	140.57	631.003	-0	0	0	-699.837	1025.24	444.772	-200	0	0	-0	0	200	-0	200	0	
1806	15.05	-974.765	1366.92	432.346	-824.9299999999999	1461.84	410.077	-934.535	1407.16	258.608	-873.851	1416.17	596.043	-984.077	1201.62	435.739	-720.184	1276.13	422.055	-902.444	982.466	297.67	-903.653	977.074	574.824	-699.766	1024.53	407.238	-702.009	1023.45	485.487	-704.119	1073.58	444.801	-1018.46	1097.5	187.895	-0	0	0	-0	0	0	-0	0	0	-1224.2	947.971	290.086	-1196.42	946.6660000000001	327.949	-1201.77	917.9059999999999	259.778	-792.2380000000001	1085.29	689.3099999999999	-0	0	0	-0	0	0	-0	0	0	-843.824	821.12	679.465	-798.391	830.861	692.164	-846.741	837.824	635.501	-863.428	812.9160000000001	622.841	-964.345	609.574	581.675	-973.295	705.627	548.7809999999999	-0	0	0	-0	0	0	-1030.53	547.295	518.13	-978.605	465.819	590.538	-1051.9	203.384	601.425	-1057.25	337.214	529.371	-0	0	0	-0	0	0	-786.658	807.249	269.828	-751.101	593.699	314.438	-848.123	638.596	353.094	-0	0	0	-0	0	0	-801.001	488.161	393.105	-0	0	0	-590.905	215.282	321.605	-689.808	315.272	390.78	-0	0	0	-0	0	0	-468.706	95.1019	371.987	-764.352	63.0001	372.612	-686.062	42.7628	425.214	-675.521	39.4355	308.465	-564.6559999999999	48.404	319.605	-635.689	134.729	368.678	-730.115	52.6362	417.587	-723.646	52.4785	323.615	-1033.24	65.6643	548.559	-1311.25	164.603	577.1420000000001	-1251.7	117.573	521.152	-1230.18	111.055	633.404	-1132.03	67.16540000000001	614.921	-1164.32	176.474	567.937	-1287.42	133.744	530.797	-1279.01	134.011	627.369	-0	0	0	-700.8869999999999	1023.99	446.363	-200	0	0	-0	0	200	-0	200	0	
1807	15.058333	-975.422	1365.92	433.986	-825.446	1460.79	412.293	-934.7859999999999	1406.78	260.452	-874.856	1414.64	597.974	-984.924	1200.63	437.038	-721.0119999999999	1274.86	424.088	-903.186	981.439	298.621	-905.329	975.917	575.848	-700.8579999999999	1023.34	408.899	-703.3680000000001	1022.14	487.146	-705.29	1072.34	446.5	-1018.13	1097.2	188.404	-0	0	0	-0	0	0	-0	0	0	-1224.07	947.7619999999999	289.991	-1196.29	946.289	327.984	-1201.62	917.667	259.633	-793.884	1083.64	691.037	-0	0	0	-0	0	0	-0	0	0	-844.789	819.3579999999999	680.87	-799.426	829.2	693.8869999999999	-847.4690000000001	836.063	636.953	-866.963	812.236	624.624	-968.083	608.929	581.46	-976.813	705.263	548.139	-0	0	0	-0	0	0	-1033.67	546.985	516.977	-982.311	464.93	589.26	-1049.41	200.866	599.889	-1056.85	334.193	527.2569999999999	-0	0	0	-0	0	0	-786.599	806.454	270.652	-749.897	593.081	315.237	-847.442	637.313	353.126	-0	0	0	-0	0	0	-799.8390000000001	486.657	390.589	-0	0	0	-586.092	216.412	321.805	-686.329	315.145	390.936	-0	0	0	-0	0	0	-462.769	97.1589	371.996	-758.014	62.5282	372.788	-679.5940000000001	42.7105	425.272	-668.986	39.251	308.533	-558.2430000000001	49.3341	319.651	-630.17	135.076	368.56	-723.683	52.3789	417.668	-717.101	52.3533	323.696	-1028.28	65.84310000000001	548.123	-1308.91	156.573	572.898	-1247.87	110.727	517.576	-1227.55	105.897	630.138	-1127.54	64.4045	613.373	-1162.17	172.119	564.764	-1283.78	125.836	527.0309999999999	-1276.31	127.402	623.746	-0	0	0	-702.1130000000001	1022.74	448.022	-200	0	0	-0	0	200	-0	200	0	
1808	15.066667	-976.146	1364.98	435.853	-825.949	1459.8	414.555	-934.952	1406.37	262.267	-875.793	1413.14	599.9640000000001	-985.982	1199.73	438.417	-721.742	1273.64	426.251	-904.1079999999999	980.4829999999999	299.619	-907.093	974.732	576.974	-702.11	1022.2	410.573	-704.879	1020.91	488.824	-706.6130000000001	1071.15	448.24	-1017.9	1096.96	188.956	-0	0	0	-0	0	0	-0	0	0	-1224.08	947.631	289.922	-1196.28	946.073	327.976	-1201.66	917.537	259.554	-795.511	1081.96	692.826	-0	0	0	-0	0	0	-0	0	0	-845.859	817.558	682.242	-800.62	827.601	695.706	-848.208	834.237	638.29	-870.838	811.203	625.872	-971.6609999999999	608.189	580.766	-980.587	704.659	547.7619999999999	-0	0	0	-0	0	0	-1036.63	546.487	515.26	-985.794	463.81	587.7569999999999	-1047.52	198.807	598.295	-1056.51	331.276	524.957	-0	0	0	-0	0	0	-786.647	805.841	271.576	-748.857	592.55	316.007	-846.8680000000001	636.211	353.258	-0	0	0	-0	0	0	-798.513	485.214	390.207	-0	0	0	-581.418	217.551	322.022	-682.978	314.984	391.14	-0	0	0	-0	0	0	-456.985	99.4515	372.004	-751.6369999999999	62.0226	372.831	-673.215	42.6088	425.2	-662.5	39.1735	308.47	-551.852	50.4825	319.627	-624.7430000000001	135.466	368.441	-717.216	52.1358	417.774	-710.6609999999999	51.9576	323.758	-1023.44	66.5184	547.711	-1306.92	148.27	568.729	-1243.95	104.275	514.275	-1224.88	100.61	627.098	-1123.27	61.7928	611.971	-1160.36	168.224	562.144	-1280.23	118.12	523.551	-1273.94	120.453	620.177	-0	0	0	-703.495	1021.55	449.698	-200	0	0	-0	0	200	-0	200	0	
1809	15.075	-976.9	1364.16	437.667	-826.468	1458.89	416.906	-935.1950000000001	1406.04	264.144	-876.779	1411.7	602.074	-987.028	1198.93	439.777	-722.6369999999999	1272.52	428.407	-905.135	979.698	300.638	-908.921	973.607	578.1369999999999	-703.449	1021.08	412.282	-706.456	1019.72	490.535	-707.989	1070.02	450.015	-1017.72	1096.81	189.585	-0	0	0	-0	0	0	-0	0	0	-1224.19	947.586	289.868	-1196.44	945.9930000000001	328	-1201.85	917.466	259.517	-797.2140000000001	1080.25	694.599	-0	0	0	-0	0	0	-0	0	0	-847.002	815.782	683.662	-801.931	825.919	697.518	-849.127	832.504	639.885	-874.944	810.081	626.529	-974.915	607.533	580.073	-984.419	703.976	547.585	-0	0	0	-0	0	0	-1039.18	546.093	514.08	-988.978	462.786	586.654	-1046.55	197.487	597.037	-1056.41	329.092	523.225	-0	0	0	-0	0	0	-786.9640000000001	805.097	272.567	-748.153	591.971	316.968	-846.2329999999999	634.465	353.797	-0	0	0	-0	0	0	-797.458	483.877	390.784	-0	0	0	-576.897	218.961	322.178	-679.8	314.848	391.347	-0	0	0	-0	0	0	-451.284	102.049	371.968	-745.08	61.4244	372.764	-666.771	42.5859	425.309	-656.034	39.0698	308.584	-545.533	51.8043	319.709	-619.4589999999999	135.936	368.37	-710.728	51.7476	417.789	-704.103	51.912	323.764	-1018.95	67.3317	547.768	-1304.92	140.195	564.638	-1239.9	98.4517	510.584	-1222.65	95.2577	623.715	-1119.41	59.0929	610.4640000000001	-1158.7	164.567	559.867	-1276.57	110.833	519.841	-1271.72	113.441	616.427	-0	0	0	-704.953	1020.4	451.408	-200	0	0	-0	0	200	-0	200	0	
